<?xml version="1.0" encoding="UTF-8"?>
<svg xmlns="http://www.w3.org/2000/svg"  width="759px" height="700px" viewBox="0 0 759 700" version="1.1">
<g id="surface1">
<path style=" stroke:none;fill-rule:nonzero;fill:rgb(0%,0%,0%);fill-opacity:1;" d="M 326.371094 187.609375 L 305.878906 208.117188 L 325.609375 227.863281 C 336.390625 238.648438 345.953125 247.613281 346.863281 247.613281 C 347.773438 247.613281 357.335938 238.648438 368.113281 227.863281 L 387.847656 208.117188 L 346.863281 167.101562 Z M 326.371094 187.609375 "/>
<path style=" stroke:none;fill-rule:nonzero;fill:rgb(0%,0%,0%);fill-opacity:1;" d="M 420.335938 187.457031 L 399.839844 207.964844 L 419.878906 228.015625 L 440.066406 248.21875 L 460.257812 228.625 C 471.339844 217.839844 480.597656 208.722656 480.902344 208.269531 C 481.054688 207.660156 472.097656 198.242188 461.015625 187.152344 L 440.828125 167.101562 Z M 420.335938 187.457031 "/>
<path style=" stroke:none;fill-rule:nonzero;fill:rgb(0%,0%,0%);fill-opacity:1;" d="M 374.1875 233.941406 C 363.257812 244.726562 354.300781 254.144531 354.148438 254.753906 C 353.847656 255.511719 362.5 264.929688 373.429688 275.714844 L 393.160156 295.464844 L 413.65625 274.957031 L 434.148438 254.449219 L 413.957031 234.246094 L 393.769531 214.039062 Z M 374.1875 233.941406 "/>
<path style=" stroke:none;fill-rule:nonzero;fill:rgb(0%,0%,0%);fill-opacity:1;" d="M 326.523438 281.03125 L 306.332031 301.085938 L 309.976562 305.035156 C 314.984375 310.65625 342.003906 337.695312 344.738281 339.820312 C 346.710938 341.339844 350.203125 338.453125 367.050781 321.59375 L 387.089844 301.539062 L 366.902344 281.335938 L 346.558594 261.132812 Z M 326.523438 281.03125 "/>
<path style=" stroke:none;fill-rule:nonzero;fill:rgb(0%,0%,0%);fill-opacity:1;" d="M 419.273438 281.488281 L 399.234375 301.539062 L 440.21875 342.554688 L 460.714844 322.046875 L 481.207031 301.539062 L 461.167969 281.488281 C 450.085938 270.398438 440.675781 261.285156 440.21875 261.285156 C 439.765625 261.285156 430.351562 270.398438 419.273438 281.488281 Z M 419.273438 281.488281 "/>
<path style=" stroke:none;fill-rule:nonzero;fill:rgb(0%,0%,0%);fill-opacity:1;" d="M 107.777344 388.585938 C 107.777344 389.191406 108.535156 390.558594 109.296875 391.320312 C 110.359375 392.382812 110.8125 406.964844 110.511719 434.15625 C 110.054688 470.007812 110.359375 475.476562 112.332031 475.476562 C 114.304688 475.476562 114.609375 470.617188 114.152344 438.714844 C 113.851562 417.144531 114.304688 402.410156 115.0625 403.320312 C 116.429688 404.839844 132.519531 444.640625 134.34375 451.171875 C 134.949219 453.296875 136.011719 455.578125 136.621094 456.488281 C 137.226562 457.25 138.898438 461.652344 140.566406 466.058594 C 145.878906 481.402344 146.941406 480.339844 160.605469 446.160156 C 167.285156 429.296875 173.203125 413.800781 173.8125 411.828125 C 174.417969 409.699219 176.238281 406.054688 177.910156 403.472656 C 180.792969 398.761719 180.792969 398.761719 180.339844 437.195312 L 179.882812 475.476562 L 196.582031 475.476562 L 196.125 434.460938 C 195.820312 407.117188 196.277344 392.535156 197.339844 390.40625 C 198.859375 387.523438 198.554688 387.371094 189.75 387.371094 L 180.488281 387.371094 L 178.214844 392.992188 C 177 396.179688 174.722656 401.800781 173.050781 405.597656 C 171.535156 409.398438 166.523438 421.703125 162.273438 432.941406 C 153.316406 455.578125 153.621094 455.121094 152.558594 453.90625 C 151.648438 452.996094 143.449219 432.335938 134.796875 409.398438 C 126.296875 386.609375 126.90625 387.371094 116.734375 387.371094 C 111.726562 387.371094 107.777344 387.976562 107.777344 388.585938 Z M 107.777344 388.585938 "/>
<path style=" stroke:none;fill-rule:nonzero;fill:rgb(0%,0%,0%);fill-opacity:1;" d="M 288.421875 390.40625 C 289.484375 392.535156 289.9375 407.117188 289.632812 434.308594 L 289.179688 475.171875 L 298.285156 475.933594 C 315.59375 477.148438 333.808594 475.78125 340.789062 472.589844 C 357.335938 465.300781 358.246094 442.210938 342.308594 433.550781 C 339.425781 432.03125 336.996094 430.207031 336.996094 429.601562 C 336.996094 428.992188 339.273438 427.472656 342.15625 426.105469 C 355.972656 419.574219 356.273438 403.015625 342.917969 393.140625 C 337.601562 389.191406 325.460938 387.371094 304.8125 387.371094 C 287.207031 387.371094 286.902344 387.371094 288.421875 390.40625 Z M 327.886719 392.6875 C 340.03125 398.914062 339.878906 419.878906 327.734375 426.105469 C 324.851562 427.777344 320.144531 428.386719 314.53125 428.082031 L 305.878906 427.625 L 305.421875 411.066406 C 305.269531 401.800781 305.421875 393.445312 305.726562 392.382812 C 306.789062 389.648438 322.269531 389.800781 327.886719 392.6875 Z M 329.101562 434.460938 C 338.210938 440.082031 341.398438 454.816406 335.476562 464.539062 C 331.53125 470.921875 324.398438 473.957031 313.46875 473.957031 L 305.117188 473.957031 L 305.117188 431.421875 L 314.679688 431.421875 C 321.511719 431.421875 325.460938 432.335938 329.101562 434.460938 Z M 329.101562 434.460938 "/>
<path style=" stroke:none;fill-rule:nonzero;fill:rgb(0%,0%,0%);fill-opacity:1;" d="M 486.824219 390.863281 C 480.597656 392.992188 478.472656 394.359375 479.535156 395.421875 C 480.445312 396.332031 481.207031 402.105469 481.207031 408.03125 L 481.207031 419.117188 L 476.5 417.449219 C 473.917969 416.535156 467.695312 416.234375 462.6875 416.6875 C 451.757812 417.601562 444.621094 422.613281 439.003906 433.09375 C 432.328125 445.550781 436.878906 461.957031 449.632812 471.375 C 454.945312 475.324219 470.125 476.691406 476.804688 473.957031 C 480.296875 472.4375 481.8125 472.4375 483.179688 473.804688 C 485.609375 476.238281 500.027344 476.085938 498.359375 473.503906 C 497.753906 472.589844 496.839844 452.84375 496.386719 429.90625 L 495.628906 387.976562 Z M 472.707031 419.878906 C 479.6875 422.765625 481.207031 428.234375 481.207031 449.652344 C 481.207031 469.554688 480.144531 471.832031 470.277344 473.351562 C 462.6875 474.566406 456.160156 468.640625 452.972656 457.855469 C 448.113281 440.992188 455.550781 418.816406 466.480469 417.902344 C 467.089844 417.75 469.972656 418.664062 472.707031 419.878906 Z M 472.707031 419.878906 "/>
<path style=" stroke:none;fill-rule:nonzero;fill:rgb(0%,0%,0%);fill-opacity:1;" d="M 657.292969 408.789062 C 648.945312 414.867188 646.515625 417.75 649.550781 417.75 C 650.613281 417.75 651.222656 425.042969 651.222656 439.777344 C 651.222656 470.3125 653.800781 475.628906 668.222656 475.324219 C 674.597656 475.324219 683.554688 472.742188 678.394531 472.589844 C 677.027344 472.4375 674.144531 471.070312 671.867188 469.25 L 667.921875 466.210938 L 667.921875 417.75 L 676.269531 417.75 C 680.824219 417.75 684.617188 416.992188 684.617188 416.234375 C 684.617188 415.320312 680.824219 414.714844 676.269531 414.714844 L 667.921875 414.714844 L 667.921875 408.636719 C 667.921875 405.296875 667.464844 402.5625 666.855469 402.5625 C 666.097656 402.710938 661.847656 405.445312 657.292969 408.789062 Z M 657.292969 408.789062 "/>
<path style=" stroke:none;fill-rule:nonzero;fill:rgb(0%,0%,0%);fill-opacity:1;" d="M 554.828125 405.597656 C 553.160156 406.207031 549.820312 408.941406 547.390625 411.523438 C 544.960938 413.953125 542.53125 415.777344 541.773438 415.472656 C 539.800781 414.105469 524.621094 418.054688 519.613281 421.09375 C 512.933594 425.042969 508.53125 432.789062 508.53125 440.234375 C 508.53125 447.980469 514.90625 455.882812 524.773438 460.589844 C 538.585938 467.121094 561.203125 460.894531 566.820312 449.046875 C 572.894531 436.285156 567.277344 424.738281 551.792969 417.902344 L 547.238281 415.929688 L 550.882812 413.042969 C 554.980469 409.699219 557.5625 409.398438 561.964844 411.828125 C 564.695312 413.195312 565.605469 413.042969 567.277344 410.765625 C 570.769531 406.054688 569.707031 404.078125 563.632812 404.230469 C 560.445312 404.230469 556.5 404.839844 554.828125 405.597656 Z M 545.113281 419.726562 C 557.257812 427.777344 556.195312 454.96875 543.597656 460.132812 C 537.675781 462.71875 533.730469 461.199219 528.871094 454.816406 C 520.824219 444.488281 523.40625 425.195312 533.425781 419.117188 C 539.195312 415.625 538.890625 415.472656 545.113281 419.726562 Z M 545.113281 419.726562 "/>
<path style=" stroke:none;fill-rule:nonzero;fill:rgb(0%,0%,0%);fill-opacity:1;" d="M 214.039062 416.234375 C 214.039062 416.839844 214.644531 417.75 215.554688 418.664062 C 216.316406 419.421875 220.867188 429.601562 225.574219 441.296875 C 240.148438 477.300781 239.691406 475.933594 237.414062 481.402344 C 234.835938 487.628906 228.609375 493.707031 224.816406 493.707031 C 222.386719 493.707031 221.78125 492.492188 221.324219 488.085938 L 220.867188 482.3125 L 215.101562 488.085938 L 209.484375 493.859375 L 214.949219 496.136719 C 222.082031 499.175781 228.003906 497.808594 234.074219 491.730469 C 239.539062 486.261719 243.941406 476.539062 258.058594 440.539062 C 261.398438 431.726562 265.5 422.765625 267.167969 420.484375 C 271.113281 415.167969 271.113281 415.167969 265.648438 415.929688 C 262.160156 416.382812 261.097656 417.449219 261.097656 419.878906 C 261.097656 423.675781 248.953125 455.730469 247.433594 455.730469 C 245.914062 455.730469 233.773438 423.523438 233.773438 419.726562 C 233.773438 416.839844 232.710938 416.382812 223.90625 415.929688 C 218.441406 415.777344 214.039062 415.777344 214.039062 416.234375 Z M 214.039062 416.234375 "/>
<path style=" stroke:none;fill-rule:nonzero;fill:rgb(0%,0%,0%);fill-opacity:1;" d="M 377.222656 416.992188 C 376.464844 417.296875 372.820312 418.359375 369.175781 419.269531 C 364.472656 420.484375 362.953125 421.398438 364.015625 422.765625 C 364.777344 423.828125 365.839844 432.789062 366.292969 442.816406 C 367.203125 463.171875 368.722656 468.1875 375.703125 472.4375 C 382.535156 476.691406 395.894531 476.539062 401.207031 472.4375 C 406.21875 468.488281 406.824219 468.640625 406.824219 473.199219 C 406.824219 476.84375 407.28125 476.996094 416.082031 476.996094 C 424.433594 476.996094 425.191406 476.691406 424.128906 474.261719 C 423.371094 472.894531 422.609375 459.222656 422.308594 443.878906 C 421.851562 418.511719 421.699219 416.082031 419.273438 416.839844 C 417.90625 417.296875 413.65625 418.359375 410.011719 419.269531 C 405.152344 420.636719 403.789062 421.398438 405.152344 422.765625 C 406.21875 423.828125 406.824219 431.421875 406.824219 443.878906 C 406.824219 462.71875 406.671875 463.628906 403.027344 467.121094 C 399.386719 470.921875 391.492188 472.289062 387.546875 469.703125 C 383.75 467.273438 382.535156 459.375 382.535156 438.109375 C 382.535156 416.082031 382.230469 415.167969 377.222656 416.992188 Z M 377.222656 416.992188 "/>
<path style=" stroke:none;fill-rule:nonzero;fill:rgb(0%,0%,0%);fill-opacity:1;" d="M 594.296875 418.359375 C 588.527344 420.941406 580.636719 429.296875 578.511719 434.917969 C 577.597656 437.347656 576.839844 442.816406 576.839844 447.222656 C 576.839844 457.398438 583.0625 467.882812 591.867188 472.4375 C 599.15625 476.085938 613.273438 476.390625 620.101562 473.046875 L 624.65625 470.921875 L 619.496094 471.679688 C 608.109375 473.351562 597.484375 466.820312 593.691406 455.882812 C 590.046875 444.792969 589.4375 445.09375 614.941406 445.09375 L 638.015625 445.09375 L 636.953125 440.082031 C 635.585938 433.09375 628.453125 423.675781 621.621094 419.726562 C 614.636719 415.777344 601.582031 415.167969 594.296875 418.359375 Z M 615.699219 423.070312 C 620.101562 429.753906 620.863281 435.675781 617.824219 439.324219 C 615.550781 442.210938 613.273438 442.816406 603.40625 443.273438 L 591.566406 443.878906 L 592.628906 437.347656 C 594.601562 424.738281 601.429688 417.296875 609.628906 418.96875 C 611.753906 419.269531 614.488281 421.246094 615.699219 423.070312 Z M 615.699219 423.070312 "/>
<path style=" stroke:none;fill-rule:nonzero;fill:rgb(0%,0%,0%);fill-opacity:1;" d="M 515.511719 468.035156 C 508.984375 473.199219 511.261719 481.859375 519.613281 483.832031 C 521.433594 484.289062 530.238281 485.199219 539.195312 485.960938 C 556.347656 487.476562 558.625 488.085938 558.625 491.429688 C 558.625 497.351562 535.703125 500.695312 524.011719 496.59375 C 519.15625 494.921875 516.574219 490.515625 518.546875 487.476562 C 519.15625 486.414062 518.546875 485.960938 516.878906 486.414062 C 515.359375 486.566406 513.386719 488.085938 512.476562 489.453125 C 508.074219 496.59375 521.433594 501.910156 540.710938 500.695312 C 560.292969 499.632812 570.769531 492.035156 566.0625 482.3125 C 562.265625 474.566406 557.410156 472.289062 541.015625 470.921875 C 532.816406 470.160156 525.378906 469.554688 524.621094 469.402344 C 524.011719 469.402344 523.710938 468.335938 524.316406 467.121094 C 525.53125 463.78125 520.371094 464.234375 515.511719 468.035156 Z M 515.511719 468.035156 "/>
</g>
</svg>
